<?xml version="1.0" encoding="UTF-8" standalone="no"?><!DOCTYPE svg PUBLIC "-//W3C//DTD SVG 1.1//EN" "http://www.w3.org/Graphics/SVG/1.1/DTD/svg11.dtd"><svg width="100%" height="100%" viewBox="0 0 453 73" version="1.1" xmlns="http://www.w3.org/2000/svg" xmlns:xlink="http://www.w3.org/1999/xlink" xml:space="preserve" xmlns:serif="http://www.serif.com/" style="fill-rule:evenodd;clip-rule:evenodd;stroke-linejoin:round;stroke-miterlimit:2;"><g><path d="M38.194,-0l9.017,27.75l29.177,-0l-23.605,17.15l9.017,27.75l-23.606,-17.151l-23.605,17.151l9.016,-27.75l-23.605,-17.15l29.178,-0l9.016,-27.75Z" style="fill:#d50118;"/><path d="M132.236,-0l9.017,27.75l29.178,-0l-23.606,17.15l9.017,27.75l-23.606,-17.151l-23.605,17.151l9.017,-27.75l-23.606,-17.15l29.178,-0l9.016,-27.75Z" style="fill:#d50118;"/><path d="M226.279,-0l9.016,27.75l29.178,-0l-23.605,17.15l9.016,27.75l-23.605,-17.151l-23.606,17.151l9.017,-27.75l-23.605,-17.15l29.177,-0l9.017,-27.75Z" style="fill:#d50118;"/><path d="M320.321,-0l9.017,27.75l29.177,-0l-23.605,17.15l9.016,27.75l-23.605,-17.151l-23.605,17.151l9.016,-27.75l-23.605,-17.15l29.178,-0l9.016,-27.75Z" style="fill:#d50118;"/><path d="M414.363,-0l9.017,27.75l29.178,-0l-23.606,17.15l9.017,27.75l-23.606,-17.151l-23.605,17.151l9.016,-27.75l-23.605,-17.15l29.178,-0l9.016,-27.75Z" style="fill:#d50118;"/></g></svg>