<?xml version="1.0" encoding="UTF-8" standalone="no"?>
<!DOCTYPE svg PUBLIC "-//W3C//DTD SVG 1.1//EN" "http://www.w3.org/Graphics/SVG/1.1/DTD/svg11.dtd">
<svg width="100%" height="100%" viewBox="0 0 70 70" version="1.1" xmlns="http://www.w3.org/2000/svg" xmlns:xlink="http://www.w3.org/1999/xlink" xml:space="preserve" xmlns:serif="http://www.serif.com/" style="fill-rule:evenodd;clip-rule:evenodd;stroke-linejoin:round;stroke-miterlimit:2;">
    <g transform="matrix(1,0,0,1,-71.6084,-320)">
        <g transform="matrix(0.426534,0,0,0.403932,-3030.22,-199.204)">
            <rect x="7272.17" y="1285.37" width="163.605" height="172.76" style="fill:rgb(208,1,28);"/>
        </g>
        <g transform="matrix(0.436145,0,0,3.36746,-43.9589,-2650.14)">
            <g transform="matrix(1.07929,0,0,0.139787,-43.243,-70.8792)">
                <circle cx="359.111" cy="6890.86" r="47.301" style="fill:rgb(208,1,0);"/>
            </g>
            <g transform="matrix(1.07929,0,0,0.139787,-43.243,-70.8792)">
                <path d="M359.111,6842.32C332.323,6842.32 310.575,6864.07 310.575,6890.86C310.575,6917.64 332.323,6939.39 359.111,6939.39C385.899,6939.39 407.647,6917.64 407.647,6890.86C407.647,6864.07 385.899,6842.32 359.111,6842.32ZM359.111,6844.79C384.535,6844.79 405.176,6865.43 405.176,6890.86C405.176,6916.28 384.535,6936.92 359.111,6936.92C333.687,6936.92 313.045,6916.28 313.045,6890.86C313.045,6865.43 333.687,6844.79 359.111,6844.79Z" style="fill:white;"/>
            </g>
            <g transform="matrix(1.21094,0,0,1.21094,-71.8936,-188.323)">
                <g transform="matrix(0.217652,0,0,0.0281898,266.181,698.123)">
                    <circle cx="359.111" cy="6890.86" r="47.301" style="fill:rgb(208,1,0);"/>
                </g>
                <g transform="matrix(0.217652,0,0,0.0281898,266.181,698.123)">
                    <path d="M359.111,6838.49C330.213,6838.49 306.751,6861.96 306.751,6890.86C306.751,6919.75 330.213,6943.21 359.111,6943.21C388.009,6943.21 411.47,6919.75 411.47,6890.86C411.47,6861.96 388.009,6838.49 359.111,6838.49ZM359.111,6848.61C382.425,6848.61 401.353,6867.54 401.353,6890.86C401.353,6914.17 382.425,6933.1 359.111,6933.1C335.797,6933.1 316.869,6914.17 316.869,6890.86C316.869,6867.54 335.797,6848.61 359.111,6848.61Z" style="fill:white;"/>
                </g>
                <g transform="matrix(0.107982,0,0,0.0139856,305.565,796.002)">
                    <circle cx="359.111" cy="6890.86" r="47.301" style="fill:white;"/>
                </g>
                <g transform="matrix(1,0,0,0.129517,-892.675,-4.8027)">
                    <path d="M1230.58,6918.97C1228.46,6919.65 1224.06,6905.45 1228.93,6900.29C1233.54,6895.41 1258.89,6902.98 1253.87,6905.96C1250.9,6907.71 1234.77,6915.93 1240.16,6917.32" style="fill:white;"/>
                </g>
                <g transform="matrix(1,0,0,0.129517,-892.675,-4.8027)">
                    <path d="M1230.57,6917.87C1230.4,6917.64 1229.75,6916.69 1229.39,6915.8C1228.41,6913.37 1227.63,6909.64 1227.87,6906.3C1228.01,6904.24 1228.53,6902.32 1229.73,6901.04C1230.55,6900.18 1232.17,6899.88 1234.14,6899.8C1239.4,6899.61 1247,6901.49 1251.08,6903.49C1251.78,6903.83 1252.38,6904.17 1252.82,6904.51C1252.91,6904.58 1253,6904.65 1253.08,6904.72C1253.16,6904.8 1253.26,6904.91 1253.33,6904.99L1253.3,6905.01C1251.2,6906.26 1242.55,6910.74 1239.42,6913.8C1238.82,6914.38 1238.4,6914.93 1238.19,6915.41C1237.95,6915.93 1237.92,6916.4 1238.03,6916.82C1238.19,6917.45 1238.7,6918.08 1239.89,6918.39C1240.48,6918.54 1241.08,6918.19 1241.23,6917.6C1241.38,6917.01 1241.03,6916.41 1240.44,6916.26C1240.39,6916.25 1240.33,6916.23 1240.28,6916.2C1240.39,6916.04 1240.56,6915.78 1240.74,6915.6C1241.17,6915.13 1241.77,6914.63 1242.47,6914.11C1246.2,6911.29 1252.66,6907.95 1254.43,6906.91C1255.14,6906.48 1255.47,6905.96 1255.58,6905.45C1255.7,6904.91 1255.58,6904.31 1255.13,6903.71C1254.62,6903.02 1253.55,6902.24 1252.05,6901.51C1247.71,6899.39 1239.65,6897.4 1234.06,6897.6C1231.38,6897.7 1229.25,6898.35 1228.13,6899.53C1226.61,6901.15 1225.85,6903.54 1225.67,6906.15C1225.41,6909.83 1226.27,6913.94 1227.35,6916.62C1227.96,6918.15 1228.69,6919.24 1229.3,6919.7C1229.87,6920.11 1230.43,6920.18 1230.92,6920.02C1231.5,6919.83 1231.81,6919.21 1231.63,6918.64C1231.48,6918.17 1231.04,6917.87 1230.57,6917.87Z" style="fill:white;"/>
                </g>
                <g transform="matrix(-0.5,0.112165,-0.866025,-0.0647587,6961.87,1202.21)">
                    <path d="M1230.58,6918.97C1228.46,6919.65 1224.06,6905.45 1228.93,6900.29C1233.54,6895.41 1258.89,6902.98 1253.87,6905.96C1250.9,6907.71 1234.77,6915.93 1240.16,6917.32" style="fill:white;"/>
                </g>
                <g transform="matrix(-0.5,0.112165,-0.866025,-0.0647587,6961.87,1202.21)">
                    <path d="M1230.57,6917.87C1230.4,6917.64 1229.75,6916.69 1229.39,6915.8C1228.41,6913.37 1227.63,6909.64 1227.87,6906.3C1228.01,6904.24 1228.53,6902.32 1229.73,6901.04C1230.55,6900.18 1232.17,6899.88 1234.14,6899.8C1239.4,6899.61 1247,6901.49 1251.08,6903.49C1251.78,6903.83 1252.38,6904.17 1252.82,6904.51C1252.91,6904.58 1253,6904.65 1253.08,6904.72C1253.16,6904.8 1253.26,6904.91 1253.33,6904.99L1253.3,6905.01C1251.2,6906.26 1242.55,6910.74 1239.42,6913.8C1238.82,6914.38 1238.4,6914.93 1238.19,6915.41C1237.95,6915.93 1237.92,6916.4 1238.03,6916.82C1238.19,6917.45 1238.7,6918.08 1239.89,6918.39C1240.48,6918.54 1241.08,6918.19 1241.23,6917.6C1241.38,6917.01 1241.03,6916.41 1240.44,6916.26C1240.39,6916.25 1240.33,6916.23 1240.28,6916.2C1240.39,6916.04 1240.56,6915.78 1240.74,6915.6C1241.17,6915.13 1241.77,6914.63 1242.47,6914.11C1246.2,6911.29 1252.66,6907.95 1254.43,6906.91C1255.14,6906.48 1255.47,6905.96 1255.58,6905.45C1255.7,6904.91 1255.58,6904.31 1255.13,6903.71C1254.62,6903.02 1253.55,6902.24 1252.05,6901.51C1247.71,6899.39 1239.65,6897.4 1234.06,6897.6C1231.38,6897.7 1229.25,6898.35 1228.13,6899.53C1226.61,6901.15 1225.85,6903.54 1225.67,6906.15C1225.41,6909.83 1226.27,6913.94 1227.35,6916.62C1227.96,6918.15 1228.69,6919.24 1229.3,6919.7C1229.87,6920.11 1230.43,6920.18 1230.92,6920.02C1231.5,6919.83 1231.81,6919.21 1231.63,6918.64C1231.48,6918.17 1231.04,6917.87 1230.57,6917.87Z" style="fill:white;"/>
                </g>
                <g transform="matrix(-0.5,-0.112165,0.866025,-0.0647587,-5036.17,1479.71)">
                    <path d="M1230.58,6918.97C1228.46,6919.65 1224.06,6905.45 1228.93,6900.29C1233.54,6895.41 1258.89,6902.98 1253.87,6905.96C1250.9,6907.71 1234.77,6915.93 1240.16,6917.32" style="fill:white;"/>
                </g>
                <g transform="matrix(-0.5,-0.112165,0.866025,-0.0647587,-5036.17,1479.71)">
                    <path d="M1230.57,6917.87C1230.4,6917.64 1229.75,6916.69 1229.39,6915.8C1228.41,6913.37 1227.63,6909.64 1227.87,6906.3C1228.01,6904.24 1228.53,6902.32 1229.73,6901.04C1230.55,6900.18 1232.17,6899.88 1234.14,6899.8C1239.4,6899.61 1247,6901.49 1251.08,6903.49C1251.78,6903.83 1252.38,6904.17 1252.82,6904.51C1252.91,6904.58 1253,6904.65 1253.08,6904.72C1253.16,6904.8 1253.26,6904.91 1253.33,6904.99L1253.3,6905.01C1251.2,6906.26 1242.55,6910.74 1239.42,6913.8C1238.82,6914.38 1238.4,6914.93 1238.19,6915.41C1237.95,6915.93 1237.92,6916.4 1238.03,6916.82C1238.19,6917.45 1238.7,6918.08 1239.89,6918.39C1240.48,6918.54 1241.08,6918.19 1241.23,6917.6C1241.38,6917.01 1241.03,6916.41 1240.44,6916.26C1240.39,6916.25 1240.33,6916.23 1240.28,6916.2C1240.39,6916.04 1240.56,6915.78 1240.74,6915.6C1241.17,6915.13 1241.77,6914.63 1242.47,6914.11C1246.2,6911.29 1252.66,6907.95 1254.43,6906.91C1255.14,6906.48 1255.47,6905.96 1255.58,6905.45C1255.7,6904.91 1255.58,6904.31 1255.13,6903.71C1254.62,6903.02 1253.55,6902.24 1252.05,6901.51C1247.71,6899.39 1239.65,6897.4 1234.06,6897.6C1231.38,6897.7 1229.25,6898.35 1228.13,6899.53C1226.61,6901.15 1225.85,6903.54 1225.67,6906.15C1225.41,6909.83 1226.27,6913.94 1227.35,6916.62C1227.96,6918.15 1228.69,6919.24 1229.3,6919.7C1229.87,6920.11 1230.43,6920.18 1230.92,6920.02C1231.5,6919.83 1231.81,6919.21 1231.63,6918.64C1231.48,6918.17 1231.04,6917.87 1230.57,6917.87Z" style="fill:white;"/>
                </g>
            </g>
        </g>
    </g>
</svg>
