<?xml version="1.0" encoding="UTF-8" standalone="no"?>
<!DOCTYPE svg PUBLIC "-//W3C//DTD SVG 1.1//EN" "http://www.w3.org/Graphics/SVG/1.1/DTD/svg11.dtd">
<svg width="100%" height="100%" viewBox="0 0 70 70" version="1.1" xmlns="http://www.w3.org/2000/svg" xmlns:xlink="http://www.w3.org/1999/xlink" xml:space="preserve" xmlns:serif="http://www.serif.com/" style="fill-rule:evenodd;clip-rule:evenodd;stroke-linejoin:round;stroke-miterlimit:2;">
    <g transform="matrix(1,0,0,1,-175.116,-320)">
        <g transform="matrix(0.426534,0,0,0.403932,-2926.71,-199.204)">
            <rect x="7272.17" y="1285.37" width="163.605" height="172.76" style="fill:rgb(208,1,28);"/>
        </g>
        <g transform="matrix(0.436145,0,0,3.36746,-583.958,-2650.14)">
            <g transform="matrix(1,0,0,1,1472.62,-7.06773e-13)">
                <g transform="matrix(1.07929,0,0,0.139787,-43.243,-70.8792)">
                    <circle cx="359.111" cy="6890.86" r="47.301" style="fill:rgb(208,1,0);"/>
                </g>
                <g transform="matrix(1.07929,0,0,0.139787,-43.243,-70.8792)">
                    <path d="M359.111,6842.32C332.323,6842.32 310.575,6864.07 310.575,6890.86C310.575,6917.64 332.323,6939.39 359.111,6939.39C385.899,6939.39 407.647,6917.64 407.647,6890.86C407.647,6864.07 385.899,6842.32 359.111,6842.32ZM359.111,6844.79C384.535,6844.79 405.176,6865.43 405.176,6890.86C405.176,6916.28 384.535,6936.92 359.111,6936.92C333.687,6936.92 313.045,6916.28 313.045,6890.86C313.045,6865.43 333.687,6844.79 359.111,6844.79Z" style="fill:white;"/>
                </g>
                <g transform="matrix(0.809332,0,0,0.104823,53.7027,170.057)">
                    <circle cx="359.111" cy="6890.86" r="47.301" style="fill:rgb(208,1,0);"/>
                </g>
                <g transform="matrix(0.809332,0,0,0.104823,53.7027,170.057)">
                    <path d="M359.111,6841.91C332.096,6841.91 310.163,6863.84 310.163,6890.86C310.163,6917.87 332.096,6939.8 359.111,6939.8C386.126,6939.8 408.059,6917.87 408.059,6890.86C408.059,6863.84 386.126,6841.91 359.111,6841.91ZM359.111,6845.2C384.307,6845.2 404.764,6865.66 404.764,6890.86C404.764,6916.05 384.307,6936.51 359.111,6936.51C333.914,6936.51 313.458,6916.05 313.458,6890.86C313.458,6865.66 333.914,6845.2 359.111,6845.2Z" style="fill:white;"/>
                </g>
                <g transform="matrix(0.299818,0,0,0.0388316,236.675,624.792)">
                    <circle cx="359.111" cy="6890.86" r="47.301" style="fill:rgb(208,1,0);"/>
                </g>
                <g transform="matrix(0.299818,0,0,0.0388316,236.675,624.792)">
                    <path d="M359.111,6839.11C330.55,6839.11 307.363,6862.29 307.363,6890.86C307.363,6919.41 330.55,6942.6 359.111,6942.6C387.671,6942.6 410.859,6919.41 410.859,6890.86C410.859,6862.29 387.671,6839.11 359.111,6839.11ZM359.111,6848C382.762,6848 401.964,6867.2 401.964,6890.86C401.964,6914.51 382.762,6933.71 359.111,6933.71C335.459,6933.71 316.257,6914.51 316.257,6890.86C316.257,6867.2 335.459,6848 359.111,6848Z" style="fill:white;"/>
                </g>
                <g transform="matrix(0.119903,0,0,0.0155296,301.284,782.048)">
                    <circle cx="359.111" cy="6890.86" r="47.301" style="fill:white;"/>
                </g>
                <g transform="matrix(0.037129,0.0147663,-0.11401,0.00480886,1140.97,852.908)">
                    <circle cx="359.111" cy="6890.86" r="47.301" style="fill:white;"/>
                </g>
                <g transform="matrix(-0.0969086,0.00914499,-0.0706081,-0.0125514,880.767,978.26)">
                    <circle cx="359.111" cy="6890.86" r="47.301" style="fill:white;"/>
                </g>
                <g transform="matrix(-0.0971462,-0.00910261,0.0702809,-0.0125821,-120.069,985.031)">
                    <circle cx="359.111" cy="6890.86" r="47.301" style="fill:white;"/>
                </g>
                <g transform="matrix(0.0367443,-0.0147824,0.114134,0.00475904,-479.7,863.874)">
                    <circle cx="359.111" cy="6890.86" r="47.301" style="fill:white;"/>
                </g>
            </g>
            <g transform="matrix(3.02659,0,0,0.391996,-3849.28,-1801.82)">
                <path d="M1885.7,6886.54C1889.29,6882.95 1891.31,6878.08 1891.31,6873C1891.31,6867.92 1889.29,6863.05 1885.7,6859.46L1882.64,6862.51C1885.43,6865.29 1886.99,6869.07 1886.99,6873C1886.99,6876.93 1885.43,6880.71 1882.64,6883.49L1885.7,6886.54Z" style="fill:white;"/>
            </g>
            <g transform="matrix(3.02659,0,0,0.391996,-3849.28,-1801.82)">
                <path d="M1885.65,6886.59C1885.67,6886.61 1885.72,6886.61 1885.74,6886.59C1889.35,6882.98 1891.37,6878.1 1891.37,6873C1891.37,6867.9 1889.35,6863.02 1885.74,6859.41C1885.72,6859.39 1885.67,6859.39 1885.65,6859.41L1882.6,6862.47C1882.57,6862.49 1882.57,6862.53 1882.6,6862.56C1885.37,6865.33 1886.92,6869.08 1886.92,6873C1886.92,6876.92 1885.37,6880.67 1882.6,6883.44C1882.57,6883.47 1882.57,6883.51 1882.6,6883.54L1885.65,6886.59ZM1885.7,6886.45L1882.74,6883.49C1885.5,6880.7 1887.06,6876.93 1887.06,6873C1887.06,6869.07 1885.5,6865.3 1882.74,6862.51C1882.74,6862.51 1885.7,6859.55 1885.7,6859.55C1889.25,6863.13 1891.24,6867.96 1891.24,6873C1891.24,6878.04 1889.25,6882.87 1885.7,6886.45L1885.7,6886.45Z" style="fill:none;"/>
            </g>
        </g>
    </g>
</svg>
