<?xml version="1.0" encoding="UTF-8" standalone="no"?><!DOCTYPE svg PUBLIC "-//W3C//DTD SVG 1.1//EN" "http://www.w3.org/Graphics/SVG/1.1/DTD/svg11.dtd"><svg width="100%" height="100%" viewBox="0 0 173 172" version="1.1" xmlns="http://www.w3.org/2000/svg" xmlns:xlink="http://www.w3.org/1999/xlink" xml:space="preserve" xmlns:serif="http://www.serif.com/" style="fill-rule:evenodd;clip-rule:evenodd;stroke-linejoin:round;stroke-miterlimit:2;"><path d="M106.081,109.991c-2.332,-0.283 -4.964,-1.445 -7.787,-3.004c-5.926,-3.273 -12.301,-8.444 -18.024,-14.244c-5.732,-5.81 -10.816,-12.259 -14.03,-18.196c-1.527,-2.822 -2.666,-5.438 -2.949,-7.729c0.389,-0.423 1.247,-1.336 1.863,-1.844c1.884,-1.554 4.032,-3.023 5.908,-4.541c6.018,-4.869 9.177,-10.675 7.531,-17.179c-1.934,-7.643 -11.982,-24.693 -21.948,-34.425c-5.55,-5.419 -11.394,-8.501 -15.936,-8.801c-5.6,-0.368 -13.837,2.86 -21.376,8.923c-10.304,8.288 -19.139,21.409 -19.327,32.107c-0.175,9.937 3.751,23.24 10.979,37.553c10.125,20.049 26.64,42.39 45.456,60.05c22,20.651 47.297,34.562 69.295,33.045c13.355,-0.921 30.498,-11.485 39.612,-21.852c4.939,-5.619 7.501,-11.404 7.642,-15.761c0.149,-4.607 -2.776,-10.756 -8.632,-16.499c-9.797,-9.609 -27.55,-19.501 -35.147,-21.511c-6.262,-1.657 -11.943,1.203 -16.821,6.778c-1.507,1.722 -2.975,3.701 -4.515,5.437c-0.496,0.56 -1.382,1.342 -1.794,1.693Zm-44.022,-63.887c-0.382,0.389 -0.894,0.891 -1.293,1.219c-1.588,1.305 -3.399,2.568 -5.077,3.879c-5.661,4.427 -9.422,9.804 -9.103,15.846c0.527,9.96 9.638,25.054 21.82,37.4c12.205,12.369 27.234,21.703 37.42,22.245c5.788,0.308 11.024,-3.165 15.426,-8.388c1.294,-1.535 2.544,-3.191 3.829,-4.638c0.298,-0.335 0.745,-0.762 1.102,-1.091c5.551,1.907 15.527,7.683 22.914,13.724c2.448,2.003 4.606,4.025 6.111,5.978c0.388,0.503 0.841,1.291 1.051,1.676c-0.178,0.62 -0.697,1.265 -1.202,2.028c-1.308,1.976 -3.176,4.042 -5.371,6.073c-6.861,6.346 -16.862,12.456 -25.097,13.024c-18.204,1.255 -38.536,-11.481 -56.742,-28.57c-17.368,-16.302 -32.639,-36.904 -41.985,-55.411c-5.752,-11.39 -9.331,-21.839 -9.192,-29.746c0.117,-6.688 6.668,-14.233 13.109,-19.414c2.223,-1.787 4.491,-3.278 6.631,-4.272c1.206,-0.561 2.273,-1.068 3.204,-1.007c0.779,0.051 1.496,0.806 2.424,1.507c2.054,1.552 4.177,3.703 6.264,6.124c6.096,7.073 11.897,16.41 13.757,21.814Z" style="fill:#d00100;"/></svg>