<?xml version="1.0" encoding="UTF-8" standalone="no"?>
<!DOCTYPE svg PUBLIC "-//W3C//DTD SVG 1.1//EN" "http://www.w3.org/Graphics/SVG/1.1/DTD/svg11.dtd">
<svg width="100%" height="100%" viewBox="0 0 147 47" version="1.1" xmlns="http://www.w3.org/2000/svg" xmlns:xlink="http://www.w3.org/1999/xlink" xml:space="preserve" xmlns:serif="http://www.serif.com/" style="fill-rule:evenodd;clip-rule:evenodd;stroke-linejoin:round;stroke-miterlimit:2;">
    <g transform="matrix(1,0,0,1,-326.937,-177.873)">
        <g transform="matrix(0.871127,0,0,4.92181,-1410.05,-2248.77)">
            <g transform="matrix(0.088726,0,0,0.0166361,1992.68,488.826)">
                <path d="M875.28,280.84C937.92,258.86 1004.92,251.81 1071.01,253.52C1167.18,256.13 1261.84,276.22 1354.58,300.6C1438.69,322.68 1522.04,347.65 1604.46,375.4C1624.51,382.19 1644.54,389.06 1664.42,396.37C1667.46,397.41 1670.63,399.16 1673.95,398.21C1683.27,396.14 1692.66,394.42 1702.01,392.5C1701.73,400.32 1701.66,408.15 1701.51,415.97C1714.01,414.53 1726.5,412.99 1739,411.5C1738.74,417.49 1738.67,423.49 1738.48,429.49C1750.98,429.75 1763.48,430.24 1775.99,430.52C1775.5,435.5 1775.04,440.48 1774.45,445.45C1798.95,451.58 1823.64,457.08 1847.83,464.41C1848.56,472.55 1852.98,479.71 1858.19,485.78C1869.14,498.55 1882.79,508.64 1894.16,521C1900.16,527.52 1903.98,536 1904.69,544.85C1906.21,558.78 1902.35,572.43 1900.53,586.12C1898.39,601.64 1896.16,617.31 1897.01,633.01C1897.01,640.98 1901.78,648.04 1901.44,656.05C1901.12,663.39 1897.73,670.37 1893.01,675.9C1885.22,685.16 1876.44,693.51 1868.3,702.45C1861.75,709.85 1854.52,718.24 1844.18,719.78C1784.31,728.18 1724.51,737.16 1664.57,744.98C1664.36,741.08 1664.68,736.83 1662.6,733.37C1661.17,731 1658.14,732.25 1655.95,732.12C1644.64,732.38 1633.3,733.24 1622,732.63C1608.73,763.6 1585.71,790.66 1556.4,807.48C1523.6,826.37 1483.68,830.52 1446.94,822.98C1417.92,817.05 1390.99,801.93 1370.51,780.57C1356.94,766.49 1345.66,750.09 1338,732.08C1331.34,732.26 1324.68,732.19 1318.03,732.05C1315.74,732.05 1312.31,731.97 1311.89,734.93C1311.7,739.67 1313.32,744.3 1313.06,749.05C1312.93,751.62 1310.52,753.33 1308.05,752.94C1130.02,752.12 952,750.95 773.98,750.11C708.86,749.48 643.73,749.59 578.61,748.93C578.85,743.25 580.2,737.64 580.17,731.95C580.17,729.49 578.26,727.28 575.75,727.21C568.51,726.71 561.31,728.15 554.09,728.53C550.16,741.5 542.71,753.09 534.74,763.93C512.78,793.33 480.68,815.68 444.51,823.2C407.45,830.84 367.42,825.39 334.44,806.56C308.29,791.56 286.7,768.79 272.81,742.07C270.15,737.46 269.71,731.21 264.85,728.16C260.02,725.46 254.25,727.07 249.02,727.09C246.25,726.75 244.06,729.29 244.29,731.95C244.56,739.95 244.11,747.95 244.47,755.95C194.63,755.37 144.68,751.1 95.87,740.71C67.99,734.5 40.08,726.91 14.46,714.04C19.43,706.41 24.36,698.7 30.51,691.95C27.3,661.38 25.76,630.66 24.49,599.96C57.48,560.52 103.76,533.44 152.94,519.51C156.84,518.1 161.42,518.3 164.84,515.81C178.77,503.07 194.05,491.72 210.66,482.68C230.46,472.03 252.42,464.46 275.07,463.97C277.42,463.85 279.84,464.09 282.14,463.43C300.17,457.68 318.81,454.08 337.4,450.62C383.01,442.42 428.99,436.42 474.99,430.8C508.59,426.89 542.2,422.94 575.92,420.16C588.73,430.84 604.91,436.54 621.14,439.46C641.38,443.03 662.11,442.71 682.48,440.47C692.5,430.63 703.98,422.48 715.35,414.31C747.73,391.58 781.37,370.74 815.09,350.08C839.18,335.43 863.39,320.99 887.78,306.87C890.12,305.35 893.13,304.51 894.69,302.04C895.25,299.82 893.32,298.41 892,297.01C886.41,291.64 880.93,286.15 875.28,280.84M958.73,305.91C939.19,310.03 920.22,316.66 902.11,325.04C871.81,339.23 843.29,356.91 815.58,375.59C783.36,397.01 751.16,418.47 719.01,440C717,441.53 714.48,443.07 713.99,445.76C714.82,447.68 717.15,447.66 718.92,447.89C725.58,448.35 732.27,447.85 738.9,447.13C747.12,434.02 757.36,422.13 769.29,412.27C781.72,402.12 796.71,394.19 812.95,393.03C821.64,392.52 829.34,397.96 834.55,404.46C843.44,415.78 848.1,430.19 848.56,444.51C953.87,440.8 1059.21,437.56 1164.53,433.95C1176.85,394.25 1189.34,354.6 1201.62,314.89C1202.85,311.62 1200.48,308.09 1197,308.02C1147.47,300.07 1097.25,295.52 1047.06,296.85C1017.5,298.27 987.77,299.83 958.73,305.91M1240.35,318.56C1239.1,319.1 1238.01,320.16 1237.67,321.5C1235.29,354.99 1232.23,388.46 1229.95,421.98C1229.76,424.91 1229.91,429.93 1233.98,429.85C1250.99,429.82 1267.97,428.23 1284.95,427.37C1336.34,423.98 1387.75,420.7 1439.02,415.78C1448.44,414.86 1458.49,414.02 1466.49,408.42C1469.64,406.37 1471.38,402.04 1469.21,398.65C1465.38,392.14 1458.33,388.59 1452.07,384.84C1430.44,372.9 1407.13,364.42 1383.84,356.36C1340.26,341.68 1295.8,329.74 1251.08,319.08C1247.59,318.35 1243.83,317.16 1240.35,318.56M1168.62,437.48C1172.27,441.51 1176.57,444.97 1179.63,449.53C1191.63,465.88 1194.4,487.4 1190.89,507.01C1187.65,527.45 1177.93,545.94 1169.74,564.7C1156.6,593.84 1141.95,623.2 1118.9,645.89C1106.13,658.48 1091.52,669.11 1076.05,678.11C1065.43,683.37 1054.38,687.88 1042.94,691.03C1022.14,696.7 1000.4,696.56 979.01,696.51C934.99,696.85 890.98,697.83 846.97,698.57C782.97,699.83 718.97,701.09 654.98,702.51C651.12,703.21 649.8,698.82 649.59,695.84C646.65,658.24 643.84,620.62 640.94,583.01C640.23,575.29 640.13,567.5 638.75,559.86C632.96,523.03 645.16,483.92 670.94,456.97C674.54,452.76 679.33,449.63 682.28,444.87C680.67,444.1 678.97,442.29 677.15,443.61C673.77,445.63 671.28,448.75 668.56,451.53C651.97,469.29 638.9,490.97 634.03,514.98C630.95,529.49 632.01,544.39 632.48,559.09C633.01,570.42 634.03,581.71 635.02,593.01C637.61,630.64 640.7,668.24 643.6,705.86C643.68,709.1 647.27,710.28 650.01,709.93C738.99,708.12 827.95,705.52 916.94,704.25C950.96,703.56 984.99,703.09 1019.01,702.41C1037.88,701.19 1056.25,695.47 1073.24,687.32C1104.66,672.01 1130.76,647.1 1150.13,618.22C1162.72,597.38 1174.02,575.71 1183.21,553.15C1190.31,535.41 1196.24,517 1198.34,497.94C1199.56,484.6 1199.05,470.42 1192.5,458.41C1188.4,451.11 1184.09,443.87 1178.72,437.43C1176.64,435.12 1174.5,432.62 1171.55,431.46C1168.41,430.42 1166.07,435.49 1168.62,437.48M265.43,467.6C246.84,471.92 228.94,479.01 212.23,488.22C187.34,501.92 164.52,519.34 144.42,539.41C140.16,543.8 135.68,548.14 132.51,553.43C131.72,554.86 130.84,556.65 131.75,558.25C135.07,560.14 139.05,558.9 142.59,558.43C164.43,553.57 185.32,544.85 204.68,533.69C231.18,518.22 255.32,498.47 275.11,474.98C276.65,472.83 280.11,469.14 276.93,466.96C273.17,465.77 269.17,466.8 265.43,467.6M1827.13,483.7C1802.23,486.38 1777.35,489.33 1752.48,492.24C1729.24,494.8 1706.05,498.02 1682.76,499.83C1681.74,500.34 1680.86,501.03 1680.12,501.88C1682.98,506.03 1688.01,507.55 1692.25,509.86C1708.1,517.28 1725.27,523.3 1743.01,522.74C1781.02,522.89 1819.01,521.48 1857.01,521.05C1858.85,520.93 1861.38,521.09 1862.24,518.99C1862.91,516.85 1862.01,514.65 1861.54,512.58C1858.53,501.76 1853.47,491.65 1847.66,482.1C1840.78,482.12 1833.96,483.06 1827.13,483.7M393.43,545.79C366.85,549.3 342.08,562.44 322.8,580.85C313.34,589.98 304.64,600.27 299.31,612.41C291.01,630.15 285.45,649.36 284.71,669.01C284.04,686.81 287.61,704.74 295.02,720.94C303.27,739.08 315.91,755.05 330.89,768.11C337.15,773.32 343.43,778.9 351.16,781.8C371.3,790.33 392.93,796.37 414.96,795.93C434.28,795.84 453.33,790.3 470.29,781.19C477.96,776.83 486.08,772.72 492.01,766.01C514.28,743.59 531.87,714.93 535.3,683.01C538.02,659.09 532.62,634.63 521.46,613.41C515.09,601.39 507.15,590.04 497.15,580.75C484.31,570.04 469.98,561.02 454.57,554.5C435.39,546.46 414.12,542.93 393.43,545.79M1472.13,545.17C1454.43,547.23 1436.88,551.82 1420.98,559.99C1406.95,567.2 1394.3,577.2 1384.33,589.45C1362.39,616.46 1352.29,652.3 1354.64,686.82C1356.84,708.1 1365.81,728.29 1378.45,745.41C1396.23,769.33 1421.66,788.35 1450.9,795.39C1461.04,797.95 1471.59,798.31 1481.99,797.67C1510.93,796.15 1539.95,786.22 1561.96,767.02C1586.42,746.01 1601.16,714.98 1604.45,683.12C1608.64,647.05 1594.8,610.09 1570.25,583.73C1545.64,556.99 1508.48,541.59 1472.13,545.17M39.43,609.45C34.49,613.75 32.44,620.88 33.78,627.22C34.57,631.29 39.23,632.55 40.88,636.09C42.58,639.41 42.07,643.31 43.18,646.79C44.64,649.07 47.75,648.39 50.04,648.48C59.35,648.01 68.68,648.61 77.98,648.38C82.45,647.94 80.53,642.6 80.56,639.67C82.61,638.99 84.73,638.44 86.92,638.5C100.32,638.34 113.74,638.52 127.15,638.46C124.01,626.27 116.03,615.41 105.18,608.98C92.63,601.43 77.47,599.49 63.08,600.62C54.66,601.43 45.84,603.61 39.43,609.45M47.28,653.37C45.94,653.92 45.04,655.4 45.46,656.85C46.33,661.09 46.91,665.37 47.65,669.64C48.05,671.81 49.3,674.65 51.96,674.47C60.99,674.52 70.02,674.36 79.05,674.49C80.83,674.68 83.04,673.93 83.37,671.93C83.71,667.27 83.36,662.55 82.76,657.92C82.48,655.52 80.65,653.12 78.07,653.09C70.72,652.6 63.34,652.81 55.98,652.54C53.09,652.58 50,652.14 47.28,653.37M50.24,681.06C51.47,688.77 53.39,696.37 54.98,704.02C60.76,703.76 66.63,702.02 71.03,698.13C76.6,693.49 79.73,686.63 81.3,679.69C73.08,677.2 64.37,679.02 55.95,678.9C54.03,679.22 50.75,678.5 50.24,681.06Z" style="fill:rgb(208,1,28);fill-rule:nonzero;"/>
            </g>
            <g transform="matrix(0.088726,0,0,0.0166361,1992.68,488.826)">
                <path d="M761.74,333.74C797.73,316.48 833.33,298.34 870.06,282.68C873.61,287.96 876.82,293.46 880.55,298.63C882.07,300.24 881.64,302.76 879.55,303.6C851.95,318.85 825.36,335.85 798.74,352.73C759.19,378.02 719.94,403.77 680.97,429.93C678.4,431.44 676.18,434 673.03,434.15C652.71,435.33 632.12,434.44 612.26,429.74C602.6,427.43 593.06,424.3 584.34,419.49C601.77,412.23 618.63,403.69 635.67,395.58C677.74,375.06 719.72,354.36 761.74,333.74L761.74,333.74Z" style="fill:rgb(208,1,28);fill-rule:nonzero;"/>
            </g>
            <g transform="matrix(0.088726,0,0,0.0166361,1992.68,488.826)">
                <path d="M400.52,554.77C416.63,552.7 432.95,555.94 448.28,560.81C465.16,566.46 481.01,575.64 493.55,588.37C507.01,601.76 516.43,618.85 521.95,636.94C526.22,651.52 529.33,666.8 527.82,682.06C525,715.42 507.27,747.58 479.56,766.64C462.1,778.85 441.19,785.5 420.09,787.41C405.75,788.99 391.31,786.56 377.55,782.6C358.29,776.99 339.94,767.48 325.26,753.69C313.68,742.86 304.69,729.22 299.62,714.18C293.33,695.83 292.64,675.94 295.44,656.86C298.29,637.12 304.51,617.52 315.87,600.98C324.44,588.33 336.07,577.82 349.4,570.38C365.08,561.58 382.75,556.89 400.52,554.77Z" style="fill:rgb(208,1,28);fill-rule:nonzero;"/>
            </g>
            <g transform="matrix(0.088726,0,0,0.0166361,1992.68,488.826)">
                <path d="M1473.5,554.78C1494.14,552.24 1515.08,557.51 1533.65,566.36C1561.74,579.88 1582.93,605.84 1592.34,635.36C1598.17,654.94 1598.97,675.9 1595.39,695.98C1591.71,716.51 1582.88,736.35 1568.78,751.85C1553.04,769.37 1531.05,780.37 1508.17,785.11C1496.65,787.85 1484.7,787.79 1472.95,787.13C1452.22,785.75 1431.51,779.68 1414.4,767.67C1396.34,755.19 1383,736.84 1374.18,716.92C1369.81,706.86 1365.6,696.5 1364.78,685.45C1361.6,649.67 1373.12,611.56 1399.48,586.43C1419.29,567.29 1446.46,557.54 1473.5,554.78L1473.5,554.78Z" style="fill:rgb(208,1,28);fill-rule:nonzero;"/>
            </g>
        </g>
    </g>
</svg>
