<?xml version="1.0" encoding="UTF-8" standalone="no"?>
<!DOCTYPE svg PUBLIC "-//W3C//DTD SVG 1.1//EN" "http://www.w3.org/Graphics/SVG/1.1/DTD/svg11.dtd">
<svg width="100%" height="100%" viewBox="0 0 70 70" version="1.1" xmlns="http://www.w3.org/2000/svg" xmlns:xlink="http://www.w3.org/1999/xlink" xml:space="preserve" xmlns:serif="http://www.serif.com/" style="fill-rule:evenodd;clip-rule:evenodd;stroke-linejoin:round;stroke-miterlimit:2;">
    <g transform="matrix(1,0,0,1,-282.391,-320)">
        <g transform="matrix(0.426534,0,0,0.403932,-2819.44,-199.204)">
            <rect x="7272.17" y="1285.37" width="163.605" height="172.76" style="fill:rgb(208,1,28);"/>
        </g>
        <g transform="matrix(0.436145,0,0,3.36746,167.099,-2649.34)">
            <g transform="matrix(1.07929,0,0,0.139787,-43.243,-70.8792)">
                <circle cx="359.111" cy="6890.86" r="47.301" style="fill:rgb(208,1,28);"/>
            </g>
            <g transform="matrix(1.07929,0,0,0.139787,-43.243,-70.8792)">
                <path d="M359.111,6842.32C332.323,6842.32 310.575,6864.07 310.575,6890.86C310.575,6917.64 332.323,6939.39 359.111,6939.39C385.899,6939.39 407.647,6917.64 407.647,6890.86C407.647,6864.07 385.899,6842.32 359.111,6842.32ZM359.111,6844.79C384.535,6844.79 405.176,6865.43 405.176,6890.86C405.176,6916.28 384.535,6936.92 359.111,6936.92C333.687,6936.92 313.045,6916.28 313.045,6890.86C313.045,6865.43 333.687,6844.79 359.111,6844.79Z" style="fill:white;"/>
            </g>
            <g transform="matrix(1.6272,0,0,0.210751,-232.443,-559.579)">
                <path d="M356.693,6866.48C355.21,6866.34 353.718,6866.34 352.235,6866.48L351.519,6871.72C350.375,6871.91 349.252,6872.21 348.167,6872.62L344.926,6868.44C343.57,6869.05 342.277,6869.8 341.066,6870.67L343.065,6875.56C342.17,6876.3 341.348,6877.12 340.612,6878.02L335.715,6876.02C334.849,6877.23 334.103,6878.52 333.486,6879.88L337.666,6883.12C337.259,6884.2 336.958,6885.33 336.768,6886.47L331.528,6887.19C331.384,6888.67 331.384,6890.16 331.528,6891.64L336.768,6892.36C336.958,6893.5 337.259,6894.63 337.666,6895.71L333.486,6898.95C334.103,6900.31 334.849,6901.6 335.715,6902.81L340.612,6900.81C341.348,6901.71 342.17,6902.53 343.065,6903.27L341.066,6908.16C342.277,6909.03 343.57,6909.78 344.926,6910.39L348.167,6906.21C349.252,6906.62 350.375,6906.92 351.519,6907.11L352.235,6912.35C353.718,6912.5 355.21,6912.5 356.693,6912.35L357.409,6907.11C358.553,6906.92 359.675,6906.62 360.761,6906.21L364.002,6910.39C365.358,6909.78 366.65,6909.03 367.862,6908.16L365.863,6903.27C366.758,6902.53 367.58,6901.71 368.316,6900.81L373.213,6902.81C374.079,6901.6 374.825,6900.31 375.442,6898.95L371.262,6895.71C371.669,6894.63 371.969,6893.5 372.16,6892.36L377.4,6891.64C377.544,6890.16 377.544,6888.67 377.4,6887.19L372.16,6886.47C371.969,6885.33 371.669,6884.2 371.262,6883.12L375.442,6879.88C374.825,6878.52 374.079,6877.23 373.213,6876.02L368.316,6878.02C367.58,6877.12 366.758,6876.3 365.863,6875.56L367.862,6870.67C366.65,6869.8 365.358,6869.05 364.002,6868.44L360.761,6872.62C359.675,6872.21 358.553,6871.91 357.409,6871.72L356.693,6866.48ZM354.464,6879.14C360.135,6879.14 364.739,6883.74 364.739,6889.41C364.739,6895.09 360.135,6899.69 354.464,6899.69C348.793,6899.69 344.189,6895.09 344.189,6889.41C344.189,6883.74 348.793,6879.14 354.464,6879.14Z" style="fill:white;"/>
            </g>
        </g>
    </g>
</svg>
