<?xml version="1.0" encoding="UTF-8" standalone="no"?>
<!DOCTYPE svg PUBLIC "-//W3C//DTD SVG 1.1//EN" "http://www.w3.org/Graphics/SVG/1.1/DTD/svg11.dtd">
<svg width="100%" height="100%" viewBox="0 0 82 77" version="1.1" xmlns="http://www.w3.org/2000/svg" xmlns:xlink="http://www.w3.org/1999/xlink" xml:space="preserve" xmlns:serif="http://www.serif.com/" style="fill-rule:evenodd;clip-rule:evenodd;stroke-linejoin:round;stroke-miterlimit:2;">
    <g transform="matrix(1,0,0,1,-583.367,-353.248)">
        <g>
            <path d="M605.288,429.486C598.624,428.953 594.842,425.768 594.282,419.617C594.222,417.387 594.356,410.296 595.939,405.964C598.044,399.087 602.858,394.125 609.037,394.125C610.356,394.125 615.31,399.849 624.125,400.058C632.94,399.849 637.894,394.125 639.213,394.125C645.392,394.125 650.206,399.087 652.312,405.964C653.895,410.296 654.028,417.387 653.969,419.617C653.408,425.768 649.626,428.953 642.962,429.486L605.288,429.486Z" style="fill:rgb(208,1,28);"/>
        </g>
        <g transform="matrix(1.11295,0,0,1.11295,-14.9522,-39.8985)">
            <path d="M542.916,373.176C542.229,372.682 541.44,372.842 540.592,373.388C537.89,376.09 537.397,381.91 537.662,387.205C537.642,388.535 539.719,392.239 543.551,392.261C546.36,392.361 550.102,392.349 550.102,392.349C550.108,392.104 553.149,389.365 555.024,388.593C557.423,387.606 560.19,387.499 560.19,387.499C558.123,384.634 556.674,381.087 557.304,375.241C552.233,376.95 547.47,375.975 542.916,373.176Z" style="fill:rgb(208,1,28);"/>
        </g>
        <g transform="matrix(-1.11295,0,0,1.11295,1263.23,-39.8985)">
            <path d="M542.916,373.176C542.229,372.682 541.44,372.842 540.592,373.388C537.89,376.09 537.397,381.91 537.662,387.205C537.642,388.535 539.719,392.239 543.551,392.261C546.36,392.361 550.102,392.349 550.102,392.349C550.108,392.104 553.149,389.365 555.024,388.593C557.423,387.606 560.19,387.499 560.19,387.499C558.123,384.634 556.674,381.087 557.304,375.241C552.233,376.95 547.47,375.975 542.916,373.176Z" style="fill:rgb(208,1,28);"/>
        </g>
        <g transform="matrix(1.54969,0,0,1.54969,-273.14,-202.571)">
            <circle cx="578.998" cy="376.258" r="10.553" style="fill:rgb(208,1,28);"/>
        </g>
        <g transform="matrix(1.03516,0,0,1.03516,0.201407,-25.3142)">
            <circle cx="578.998" cy="376.258" r="10.553" style="fill:rgb(208,1,28);"/>
        </g>
        <g transform="matrix(1.03516,0,0,1.03516,49.3356,-25.3142)">
            <circle cx="578.998" cy="376.258" r="10.553" style="fill:rgb(208,1,28);"/>
        </g>
    </g>
</svg>
