<?xml version="1.0" encoding="UTF-8" standalone="no"?><!DOCTYPE svg PUBLIC "-//W3C//DTD SVG 1.1//EN" "http://www.w3.org/Graphics/SVG/1.1/DTD/svg11.dtd"><svg width="100%" height="100%" viewBox="0 0 135 174" version="1.1" xmlns="http://www.w3.org/2000/svg" xmlns:xlink="http://www.w3.org/1999/xlink" xml:space="preserve" xmlns:serif="http://www.serif.com/" style="fill-rule:evenodd;clip-rule:evenodd;stroke-linejoin:round;stroke-miterlimit:2;"><g><path d="M61.018,170.996c1.583,1.845 3.893,2.907 6.324,2.907c2.431,-0 4.741,-1.062 6.324,-2.907c-0,0 29.477,-34.375 47.172,-65.303c8.303,-14.513 13.846,-28.478 13.846,-38.351c-0,-37.167 -30.175,-67.342 -67.342,-67.342c-37.167,-0 -67.342,30.175 -67.342,67.342c0,9.873 5.543,23.838 13.846,38.351c17.695,30.928 47.172,65.303 47.172,65.303Zm6.324,-18.467c-9.342,-11.481 -27.018,-34.118 -39.03,-55.113c-6.567,-11.479 -11.645,-22.265 -11.645,-30.074c-0,-27.969 22.706,-50.675 50.675,-50.675c27.968,-0 50.675,22.706 50.675,50.675c0,7.809 -5.078,18.595 -11.646,30.074c-12.011,20.995 -29.687,43.632 -39.029,55.113l-0,-0Z" style="fill:#d00100;"/><circle cx="67.342" cy="66.593" r="17.081" style="fill:#d00100;"/></g></svg>