<?xml version="1.0" encoding="UTF-8" standalone="no"?><!DOCTYPE svg PUBLIC "-//W3C//DTD SVG 1.1//EN" "http://www.w3.org/Graphics/SVG/1.1/DTD/svg11.dtd"><svg width="100%" height="100%" viewBox="0 0 171 132" version="1.1" xmlns="http://www.w3.org/2000/svg" xmlns:xlink="http://www.w3.org/1999/xlink" xml:space="preserve" xmlns:serif="http://www.serif.com/" style="fill-rule:evenodd;clip-rule:evenodd;stroke-linejoin:round;stroke-miterlimit:2;"><path d="M0.103,26.608c-0.001,0.045 -0,0.09 0,0.135l0.543,96.643c0.026,4.58 3.744,8.282 8.325,8.286l153.151,0.145c2.212,0.002 4.334,-0.875 5.898,-2.438c1.565,-1.563 2.444,-3.684 2.444,-5.895l-0,-96.795c0,-0.05 0,-0.099 -0,-0.148l-0,-18.208c-0,-4.602 -3.731,-8.333 -8.334,-8.333c0,-0 -153.797,-0 -153.797,0c-2.218,0 -4.345,0.884 -5.909,2.457c-1.564,1.573 -2.436,3.705 -2.424,5.923l0.103,18.228Zm153.694,13.998l-64.604,34.899c-2.474,1.336 -5.454,1.335 -7.926,-0.002l-64.419,-34.846l0.418,74.356c-0,0 136.531,0.129 136.531,0.13l0,-74.537Zm-137.055,-18.955l-0.028,-4.984l137.083,-0l0,4.996l-68.563,37.037l-68.492,-37.049Z" style="fill:#d00100;"/></svg>