<?xml version="1.0" encoding="UTF-8" standalone="no"?>
<!DOCTYPE svg PUBLIC "-//W3C//DTD SVG 1.1//EN" "http://www.w3.org/Graphics/SVG/1.1/DTD/svg11.dtd">
<svg width="100%" height="100%" viewBox="0 0 75 77" version="1.1" xmlns="http://www.w3.org/2000/svg" xmlns:xlink="http://www.w3.org/1999/xlink" xml:space="preserve" xmlns:serif="http://www.serif.com/" style="fill-rule:evenodd;clip-rule:evenodd;stroke-linejoin:round;stroke-miterlimit:2;">
    <g transform="matrix(1,0,0,1,-362.534,-353.248)">
        <g transform="matrix(1.07535,0,0,5.84677,-225.304,-3273.21)">
            <g transform="matrix(0.510238,0,0,0.0956697,236.327,308.108)">
                <path d="M609.233,3283.33C609.233,3283.33 599.046,3317.56 642.216,3316.58C656.442,3330.24 692.03,3364.42 692.03,3364.42C692.03,3364.42 683.429,3401.8 725.819,3398.21C720.946,3393.07 713.738,3385.47 713.738,3385.47C708.396,3369.42 715.083,3364.14 730.566,3366.72L744.276,3379.53C744.276,3379.53 751.407,3342.56 710.467,3345.72C700.48,3335.15 662.197,3297.38 662.197,3297.38C662.197,3297.38 669.626,3263.79 629.804,3262.72C635.22,3269.07 643.027,3278.24 643.027,3278.24C643.297,3292.17 637.059,3297.88 624.825,3296L609.233,3283.33Z" style="fill:rgb(208,1,28);"/>
            </g>
            <g transform="matrix(0.510238,0,0,0.0956697,236.327,308.108)">
                <path d="M662.005,3364.55L629.073,3398.45C614.119,3400.74 605.804,3396.37 610.39,3379.09L644.445,3344.99L654.833,3344.11L697.855,3300.09L705.332,3278.26L733.231,3262.72L744.752,3274.08L729.407,3300.64L706.897,3309.46L663.903,3353.23L662.005,3364.55Z" style="fill:rgb(208,1,28);"/>
            </g>
        </g>
    </g>
</svg>
