<?xml version="1.0" encoding="UTF-8" standalone="no"?><!DOCTYPE svg PUBLIC "-//W3C//DTD SVG 1.1//EN" "http://www.w3.org/Graphics/SVG/1.1/DTD/svg11.dtd"><svg width="100%" height="100%" viewBox="0 0 167 167" version="1.1" xmlns="http://www.w3.org/2000/svg" xmlns:xlink="http://www.w3.org/1999/xlink" xml:space="preserve" xmlns:serif="http://www.serif.com/" style="fill-rule:evenodd;clip-rule:evenodd;stroke-linejoin:round;stroke-miterlimit:2;"><g><path d="M83.421,0c-46.041,0 -83.421,37.38 -83.421,83.421c0,46.042 37.38,83.422 83.421,83.422c46.042,-0 83.422,-37.38 83.422,-83.422c-0,-46.041 -37.38,-83.421 -83.422,-83.421Zm0,16.667c36.843,-0 66.755,29.911 66.755,66.754c0,36.843 -29.912,66.755 -66.755,66.755c-36.843,0 -66.754,-29.912 -66.754,-66.755c-0,-36.843 29.911,-66.754 66.754,-66.754Z" style="fill:#d00100;"/><path d="M75.088,38.709l0,50.531c0,2.21 0.878,4.329 2.441,5.892l31.192,31.192c3.252,3.253 8.533,3.253 11.785,0c3.252,-3.252 3.252,-8.533 0,-11.785l-28.751,-28.751c-0,-0 -0,-47.079 -0,-47.079c-0,-4.599 -3.734,-8.333 -8.334,-8.333c-4.599,-0 -8.333,3.734 -8.333,8.333Z" style="fill:#d00100;"/></g></svg>